<svg id="Layer_1" data-name="Layer 1" xmlns="http://www.w3.org/2000/svg" viewBox="0 0 512 512"><defs><style>.cls-1{fill:#d9e4e8;fill-rule:evenodd;}.cls-2{fill:#fff;}.cls-3{fill:#79d3d3;}.cls-4{fill:#141f38;}</style></defs><title>envelope-open-check-filled</title><path class="cls-1" d="M64,499.2A51.26,51.26,0,0,1,12.8,448V224a51.45,51.45,0,0,1,20.48-41c.17-.12.34-.26.51-.4L224,24.15a50.67,50.67,0,0,1,64,.09l190.14,158.4c.17.14.34.28.51.4a51.45,51.45,0,0,1,20.48,41V448A51.26,51.26,0,0,1,448,499.2Z"/><path class="cls-2" d="M89.6,273.45,256,409.6,422.4,273.45V108.8A44.8,44.8,0,0,0,377.6,64H134.4a44.8,44.8,0,0,0-44.8,44.8Z"/><path class="cls-1" d="M64,499.2c-1.93,0-3.82-.17-5.69-.35a49,49,0,0,1-28.84-14.21l193-153.19a54.72,54.72,0,0,1,67,0l193,153.18a49.25,49.25,0,0,1-29.09,14.24c-1.61.15-3.5.33-5.43.33Z"/><path class="cls-3" d="M256,268.8A76.8,76.8,0,1,1,332.8,192,76.88,76.88,0,0,1,256,268.8Z"/><path class="cls-4" d="M256,281.6A89.6,89.6,0,1,0,166.4,192,89.6,89.6,0,0,0,256,281.6ZM256,128a64,64,0,1,1-64,64A64.07,64.07,0,0,1,256,128Zm-35.43,64.34a12.8,12.8,0,0,1,18-1.64l9,7.5,23-38.39a12.8,12.8,0,0,1,22,13.17l-30.72,51.2a12.79,12.79,0,0,1-8.84,6,12.34,12.34,0,0,1-2.14.18,12.8,12.8,0,0,1-8.19-3l-20.48-17.07A12.8,12.8,0,0,1,220.57,192.34ZM486.4,172.8l-51.2-42.65V108.8a57.66,57.66,0,0,0-57.6-57.6H340.43L296.15,14.31a63.48,63.48,0,0,0-80.3,0L171.57,51.2H134.4a57.66,57.66,0,0,0-57.6,57.6v21.35L25.6,172.8A64,64,0,0,0,0,224V448a64,64,0,0,0,61.85,63.95c.71,0,1.43.05,2.15.05H448c.72,0,1.44,0,2.15-.05A64,64,0,0,0,512,448V224A64,64,0,0,0,486.4,172.8Zm-145,183.49,93.82-76.76v-.34l51.2-42V448a38.15,38.15,0,0,1-5.19,19.25ZM470,192.47q.5.42,1,.81a38.42,38.42,0,0,1,11.5,14c-.19.14-.38.26-.56.41L435.2,246.07v-82.6ZM232,34.16A37.88,37.88,0,0,1,279.76,34L300.44,51.2H211.56ZM134.4,76.8H377.6a32,32,0,0,1,32,32V267.07L325.92,335.7a12.88,12.88,0,0,0-1.2,1.13L320.85,340l-23.41-18.58a67.5,67.5,0,0,0-82.89,0L191.15,340l-3.87-3.17a12.88,12.88,0,0,0-1.2-1.13L102.4,267.07V108.8A32,32,0,0,1,134.4,76.8ZM30.79,467.25A38.15,38.15,0,0,1,25.6,448V237.2l51.2,42v.33l93.82,76.76ZM41,193.28q.52-.39,1-.81l34.81-29v82.61L30,207.7c-.18-.15-.37-.27-.55-.41A38.41,38.41,0,0,1,41,193.28ZM64,486.4l-1,0c-.91,0-2-.13-3.18-.24A34.68,34.68,0,0,1,51,483.87l179.44-142.4a41.91,41.91,0,0,1,51.06,0L461,483.87a34.68,34.68,0,0,1-8.79,2.26c-1,.1-2.15.2-3.16.24l-1,0Z"/></svg>