<svg xmlns="http://www.w3.org/2000/svg" viewBox="0 0 48 48" width="20" height="20">
  <path fill="#4285F4" d="M24 9.5c3.54 0 6.39 1.24 8.39 3.26l6.25-6.25C34.82 2.73 29.84.5 24 .5 14.96.5 7.32 5.91 3.75 13.33l7.26 5.66C12.87 13.23 17.99 9.5 24 9.5z"/>
  <path fill="#34A853" d="M46.26 24.5c0-1.5-.13-2.94-.38-4.33H24v8.17h12.46c-.54 2.94-2.14 5.42-4.64 7.12l7.26 5.66c4.26-3.94 6.68-9.75 6.68-16.62z"/>
  <path fill="#FBBC05" d="M10.48 28.24A14.4 14.4 0 019.5 24c0-1.48.25-2.9.68-4.24l-7.26-5.66A23.905 23.905 0 000 24c0 3.83.94 7.45 2.6 10.62l7.88-6.38z"/>
  <path fill="#EA4335" d="M24 47.5c6.48 0 11.93-2.15 15.9-5.82l-7.26-5.66c-2.02 1.35-4.6 2.16-8.64 2.16-6 0-11.13-3.73-13-8.95l-7.26 5.66C7.32 42.09 14.96 47.5 24 47.5z"/>
</svg>